<svg xmlns="http://www.w3.org/2000/svg" width="570.838" height="39" viewBox="0 0 570.838 39">
  <g id="Group_4723" data-name="Group 4723" transform="translate(-1284 -73)">
    <g id="Group_3035" data-name="Group 3035" transform="translate(1596 79.988)">
      <g id="Group_2964" data-name="Group 2964" transform="translate(0.016 0.016)">
        <rect id="Rectangle_166" data-name="Rectangle 166" width="37.281" height="24.968" transform="translate(0 0)" fill="#102576"/>
      </g>
      <g id="Group_2965" data-name="Group 2965" transform="translate(0.016 0.016)">
        <path id="Path_7686" data-name="Path 7686" d="M3362.979,385.068h4.672l9.781,6.55v-6.55h8.381v6.549l9.776-6.549h4.671v3.127l-7.712,5.166h7.712v8.382h-7.712l7.712,5.166v3.127h-4.669l-9.778-6.549v6.549h-8.381v-6.552l-9.782,6.552h-4.67v-3.127l7.713-5.167h-7.713v-8.382h7.715l-7.715-5.167Z" transform="translate(-3362.979 -385.068)" fill="#fff"/>
      </g>
      <g id="Group_2966" data-name="Group 2966" transform="translate(0.016 16.916)">
        <path id="Path_7687" data-name="Path 7687" d="M3377.038,435.128v-.583h-2.013l-12.046,8.067h2.881Z" transform="translate(-3362.979 -434.545)" fill="#e50019"/>
      </g>
      <g id="Group_2967" data-name="Group 2967" transform="translate(23.243 0.016)">
        <path id="Path_7688" data-name="Path 7688" d="M3430.733,392.551v.584h2.008l12.046-8.067H3441.9Z" transform="translate(-3430.733 -385.068)" fill="#e50019"/>
      </g>
      <g id="Group_2968" data-name="Group 2968" transform="translate(0.016 0.016)">
        <path id="Path_7689" data-name="Path 7689" d="M3362.979,387l9.166,6.139h2.882l-12.047-8.067h0Z" transform="translate(-3362.979 -385.068)" fill="#e50019"/>
      </g>
      <g id="Group_2969" data-name="Group 2969" transform="translate(25.253 16.916)">
        <path id="Path_7690" data-name="Path 7690" d="M3436.863,434.545l12.044,8.067v-1.93l-9.164-6.138Z" transform="translate(-3436.863 -434.545)" fill="#e50019"/>
      </g>
      <g id="Group_2970" data-name="Group 2970" transform="translate(0.016 0.016)">
        <path id="Path_7691" data-name="Path 7691" d="M3384.136,395.038v-9.97h-5.03v9.97h-16.127v5.029h16.127v9.969h5.03v-9.969h16.124v-5.029Z" transform="translate(-3362.979 -385.068)" fill="#e50019"/>
      </g>
      <g id="Group_2971" data-name="Group 2971">
        <path id="Path_7692" data-name="Path 7692" d="M3400.243,410.019h-37.313v-25h37.313Zm-37.28-.033h37.247V385.052h-37.247Z" transform="translate(-3362.929 -385.019)" fill="#1a1818"/>
      </g>
    </g>
    <path id="Path_7582" data-name="Path 7582" d="M102.3,77.923H98.716v-1.3a5.761,5.761,0,0,0-11.522,0v1.3H83.607a1.1,1.1,0,0,0-1.1,1.1V92.46a3.41,3.41,0,0,0,3.406,3.406H99.995A3.41,3.41,0,0,0,103.4,92.46V79.022A1.1,1.1,0,0,0,102.3,77.923Zm-14.114-1.3a4.766,4.766,0,0,1,9.533,0v1.3H88.188ZM102.406,92.46a2.414,2.414,0,0,1-2.411,2.411H85.914A2.414,2.414,0,0,1,83.5,92.46V79.022a.1.1,0,0,1,.1-.1h3.586V81.04a1.244,1.244,0,1,0,1,0V78.918h9.533V81.04a1.244,1.244,0,1,0,.995,0V78.918H102.3a.1.1,0,0,1,.1.1Z" transform="translate(1640.992 9.134)" fill="#fff" stroke="#fff" stroke-width="0.5"/>
    <g id="Group_2867" data-name="Group 2867" transform="translate(1834 80)">
      <g id="Group_2661" data-name="Group 2661" transform="translate(3.676 0)">
        <path id="Path_7580" data-name="Path 7580" d="M113.274,88.712a6.618,6.618,0,1,1,6.618-6.618A6.625,6.625,0,0,1,113.274,88.712Zm0-11.765a5.147,5.147,0,1,0,5.147,5.147A5.153,5.153,0,0,0,113.274,76.948Z" transform="translate(-106.656 -75.477)" fill="#fff" stroke="#fff" stroke-width="0.5"/>
      </g>
      <g id="Group_2662" data-name="Group 2662" transform="translate(0 13.971)">
        <path id="Path_7581" data-name="Path 7581" d="M107.022,160.556a.735.735,0,0,1-.735-.735,8.824,8.824,0,0,0-17.616-.735h14.675a.735.735,0,1,1,0,1.471H87.169v-.735a10.294,10.294,0,0,1,20.588,0A.736.736,0,0,1,107.022,160.556Z" transform="translate(-87.169 -149.527)" fill="#fff" stroke="#fff" stroke-width="0.5"/>
      </g>
    </g>
    <g id="Group_4560" data-name="Group 4560" transform="translate(-10 -1)">
      <text id="SUNDAY_12_FEBRUARY_2023" data-name="SUNDAY, 12 FEBRUARY 2023" transform="translate(1586 109)" fill="#be9f56" font-size="14" font-family="SegoeUI, Segoe UI" letter-spacing="0.15em"><tspan x="-225.406" y="0">SUNDAY, 12 FEBRUARY 2023</tspan></text>
      <g id="Group_4559" data-name="Group 4559">
        <text id="LONDON" transform="translate(1351 89)" fill="#fff" font-size="14" font-family="SegoeUI, Segoe UI" letter-spacing="0.15em"><tspan x="0" y="0">LONDON</tspan></text>
        <text id="_17:23" data-name="17:23" transform="translate(1294 89)" fill="#fff" font-size="14" font-family="SegoeUI, Segoe UI" letter-spacing="0.15em"><tspan x="0" y="0">17:23</tspan></text>
        <text id="UNITED_KINGDOM" data-name="UNITED KINGDOM" transform="translate(1586 89)" fill="#fff" font-size="14" font-family="SegoeUI, Segoe UI" letter-spacing="0.15em"><tspan x="-144.051" y="0">UNITED KINGDOM</tspan></text>
      </g>
    </g>
  </g>
</svg>
